<mxfile host="app.diagrams.net" modified="2021-03-04T14:05:31.677Z" agent="5.0 (Windows NT 6.1; Win64; x64) AppleWebKit/537.36 (KHTML, like Gecko) Chrome/88.0.4324.190 Safari/537.36" etag="_TX4ORp8YaXaO5T1y7_b" version="14.4.4" type="github">
  <diagram id="wHgKkbp8WhttuIvImUMP" name="Page-1">
    <mxGraphModel dx="860" dy="442" grid="1" gridSize="10" guides="1" tooltips="1" connect="1" arrows="1" fold="1" page="1" pageScale="1" pageWidth="827" pageHeight="1169" math="0" shadow="0">
      <root>
        <mxCell id="0" />
        <mxCell id="1" parent="0" />
        <mxCell id="jXER6xvufRKy0y_I__yA-1" value="Lifeline1" style="shape=umlLifeline;perimeter=lifelinePerimeter;whiteSpace=wrap;html=1;container=1;collapsible=0;recursiveResize=0;outlineConnect=0;" vertex="1" parent="1">
          <mxGeometry x="60" y="340" width="100" height="420" as="geometry" />
        </mxCell>
        <mxCell id="jXER6xvufRKy0y_I__yA-2" value="Lifeline2" style="shape=umlLifeline;perimeter=lifelinePerimeter;whiteSpace=wrap;html=1;container=1;collapsible=0;recursiveResize=0;outlineConnect=0;lifelineDashed=0;" vertex="1" parent="1">
          <mxGeometry x="300" y="340" width="100" height="420" as="geometry" />
        </mxCell>
        <mxCell id="jXER6xvufRKy0y_I__yA-3" value="Actor" style="shape=umlActor;verticalLabelPosition=bottom;verticalAlign=top;html=1;" vertex="1" parent="1">
          <mxGeometry x="95" y="210" width="30" height="60" as="geometry" />
        </mxCell>
        <mxCell id="jXER6xvufRKy0y_I__yA-4" value="Actor" style="shape=umlActor;verticalLabelPosition=bottom;verticalAlign=top;html=1;" vertex="1" parent="1">
          <mxGeometry x="335" y="210" width="30" height="60" as="geometry" />
        </mxCell>
      </root>
    </mxGraphModel>
  </diagram>
</mxfile>
